<svg xmlns="http://www.w3.org/2000/svg" viewBox="0 0 379 379"><defs><style>.cls-1{fill:#fff;}.cls-1,.cls-10,.cls-2{stroke:#b3b3b3;}.cls-1,.cls-10,.cls-2,.cls-3,.cls-4{stroke-miterlimit:10;}.cls-1,.cls-10{stroke-width:0.5px;}.cls-2,.cls-3,.cls-4{fill:none;}.cls-2{stroke-width:5px;}.cls-3,.cls-4{stroke:#4d4d4d;}.cls-3{stroke-width:7px;}.cls-4{stroke-width:8px;}.cls-5{fill:#b495c9;}.cls-6{fill:#f1d386;}.cls-7{fill:#8bc9d9;}.cls-8{fill:#f2a673;}.cls-9{fill:#a5d3b4;}.cls-10{font-size:16px;fill:#b3b3b3;font-family:MyriadPro-Regular, Myriad Pro;}</style></defs><g id="Layer_2" data-name="Layer 2"><g id="Layer_1-2" data-name="Layer 1"><circle class="cls-1" cx="190.5" cy="189" r="186"/><path class="cls-2" d="M156,9.5a124.24,124.24,0,0,1-12,39c-6.71,13.42-14.6,22.26-24,33a258.77,258.77,0,0,1-24.19,24.19"/><path class="cls-2" d="M124.88,76.5a28.21,28.21,0,0,1,11.36,10.09c1.07,1.68,5.87,9.67,3.79,25.22-2.13,15.92-9.34,23.84-18,39.34a205.88,205.88,0,0,0-17,40.35"/><path class="cls-2" d="M353,105.5c-35.59,39.09-42.14,69.44-41.23,90.28.72,16.62,6.66,38.3-2.43,67.7a124.54,124.54,0,0,1-13.34,29"/><path class="cls-2" d="M190,259.5c13-30.11,28.78-42.61,39.5-48.44,7.06-3.83,12.27-4.95,38.35-11.78,19-5,34.38-9.12,44.15-11.78"/><path class="cls-2" d="M54,67.5C82.48,81,92.4,96.26,96.26,107.5c5,14.52,5.06,37.6,5.16,66,0,4.48,0,13.84,5.15,24a50.4,50.4,0,0,0,14.43,17"/><path class="cls-2" d="M136,61.79a123.61,123.61,0,0,0,51.29-5.27A123.72,123.72,0,0,0,245,16.5"/><path class="cls-2" d="M144,234.5c18.08,14.36,34.29,21.17,45.65,24.73,16.66,5.23,21.73,3.12,51.87,11.34,14.15,3.86,22.77,6.25,34.23,11.33,13.44,6,17.26,9.62,28,13.4A94.36,94.36,0,0,0,338,300.45"/><path class="cls-2" d="M314,223.63a70.93,70.93,0,0,1,38.75-3.87A69.75,69.75,0,0,1,374,227.5"/><path class="cls-2" d="M327,140.5c5.71,4.4,15.17,10.18,27.3,11A43.67,43.67,0,0,0,369,149.9"/><path class="cls-2" d="M246,205.5a84.62,84.62,0,0,1,17.77,32.17c2.24,7.67,4.83,17,2,27.74a38,38,0,0,1-4.93,11.09"/><path class="cls-3" d="M184,214.5h0a10.61,10.61,0,0,1-15,0l-24.91-24.91a10.6,10.6,0,0,1,15-15L184,199.51A10.6,10.6,0,0,1,184,214.5Z"/><path class="cls-3" d="M147,194.5c-15.85,12.5-29.56,24-41,34,0,0-30.59,26.67-39,51-2.17,6.27-1.27,9.33,0,11,2.54,3.35,8,3.09,10,3,18-.84,42.51-29.82,56-46,9.31-11.16,19.73-23.88,31-38"/><path class="cls-3" d="M170.35,187a58.22,58.22,0,0,0,82.33-.19L170.16,104.7A58.21,58.21,0,0,0,170.35,187Z"/><line class="cls-4" x1="180" y1="112.5" x2="214" y2="79.5"/><line class="cls-4" x1="193.6" y1="126.55" x2="227.6" y2="93.55"/><line class="cls-4" x1="229.6" y1="163.55" x2="263.6" y2="130.55"/><line class="cls-4" x1="243.6" y1="178.55" x2="277.6" y2="145.55"/><rect class="cls-5" x="221.43" y="109.8" width="26.34" height="26.34" transform="translate(159.45 -131.02) rotate(45.86)"/><rect class="cls-6" x="245.69" y="85.34" width="26.34" height="26.34" transform="translate(149.26 -155.85) rotate(45.86)"/><rect class="cls-7" x="220.69" y="59.34" width="26.34" height="26.34" transform="translate(123.01 -145.81) rotate(45.86)"/><rect class="cls-8" x="272.69" y="112.34" width="26.34" height="26.34" transform="translate(176.83 -167.04) rotate(45.86)"/><rect class="cls-9" x="270.69" y="60.34" width="26.34" height="26.34" transform="translate(135.12 -179.19) rotate(45)"/><circle class="cls-4" cx="189.5" cy="189.5" r="185.5"/><text class="cls-10" transform="translate(105.35 62.97)">1</text><text class="cls-10" transform="translate(230.52 246.49)">1</text><text class="cls-10" transform="translate(340.52 189.49)">1</text><text class="cls-10" transform="translate(183.52 36.49)">2</text><text class="cls-10" transform="translate(332.52 267.49)">2</text><text class="cls-10" transform="translate(114.52 127.49)">3</text><text class="cls-10" transform="translate(283.52 246.49)">3</text></g></g></svg>